<svg width="56" height="65" viewBox="0 0 56 65" fill="none" xmlns="http://www.w3.org/2000/svg">
<mask id="path-1-outside-1_21_2" maskUnits="userSpaceOnUse" x="0" y="0" width="56" height="65" fill="black">
<rect fill="white" width="56" height="65"/>
<path d="M14.6334 14.384H6.50541V62.064H15.0814C18.8787 62.064 21.7374 61.6373 23.6574 60.784C25.6201 59.9307 27.0707 58.5653 28.0094 56.688C28.9907 54.8107 29.5881 52.3573 29.8014 49.328C30.0574 46.2987 30.1854 42.608 30.1854 38.256C30.1854 34.288 30.0574 30.8107 29.8014 27.824C29.5454 24.8373 28.9054 22.3627 27.8814 20.4C26.9001 18.3947 25.4067 16.9013 23.4014 15.92C21.4387 14.896 18.5161 14.384 14.6334 14.384ZM12.7774 20.784H14.6974C17.0441 20.784 18.7721 21.104 19.8814 21.744C21.0334 22.384 21.8654 23.408 22.3774 24.816C22.8894 26.224 23.2094 27.9733 23.3374 30.064C23.4654 32.112 23.5294 34.8 23.5294 38.128C23.5294 41.2853 23.4441 43.9733 23.2734 46.192C23.1454 48.4107 22.8254 50.224 22.3134 51.632C21.8014 53.04 21.0121 54.064 19.9454 54.704C18.9214 55.344 17.3214 55.664 15.1454 55.664H12.7774V20.784ZM5.48141 10.544H31.5294V63.024L3.36941 63.216L3.24141 15.536L5.48141 10.544ZM27.1774 9.904H1.44941L1.32141 1.136H23.2094L27.1774 9.904ZM54.0329 22.85L49.3349 39.786L53.8589 62H46.4929L42.8389 43.962V62H35.6469V22.85H42.8389V36.248L46.5509 22.85H54.0329Z"/>
</mask>
<path d="M14.6334 14.384H6.50541V62.064H15.0814C18.8787 62.064 21.7374 61.6373 23.6574 60.784C25.6201 59.9307 27.0707 58.5653 28.0094 56.688C28.9907 54.8107 29.5881 52.3573 29.8014 49.328C30.0574 46.2987 30.1854 42.608 30.1854 38.256C30.1854 34.288 30.0574 30.8107 29.8014 27.824C29.5454 24.8373 28.9054 22.3627 27.8814 20.4C26.9001 18.3947 25.4067 16.9013 23.4014 15.92C21.4387 14.896 18.5161 14.384 14.6334 14.384ZM12.7774 20.784H14.6974C17.0441 20.784 18.7721 21.104 19.8814 21.744C21.0334 22.384 21.8654 23.408 22.3774 24.816C22.8894 26.224 23.2094 27.9733 23.3374 30.064C23.4654 32.112 23.5294 34.8 23.5294 38.128C23.5294 41.2853 23.4441 43.9733 23.2734 46.192C23.1454 48.4107 22.8254 50.224 22.3134 51.632C21.8014 53.04 21.0121 54.064 19.9454 54.704C18.9214 55.344 17.3214 55.664 15.1454 55.664H12.7774V20.784ZM5.48141 10.544H31.5294V63.024L3.36941 63.216L3.24141 15.536L5.48141 10.544ZM27.1774 9.904H1.44941L1.32141 1.136H23.2094L27.1774 9.904ZM54.0329 22.85L49.3349 39.786L53.8589 62H46.4929L42.8389 43.962V62H35.6469V22.85H42.8389V36.248L46.5509 22.85H54.0329Z" fill="#A12B27"/>
<path d="M6.50541 14.384V13.384H5.50541V14.384H6.50541ZM6.50541 62.064H5.50541V63.064H6.50541V62.064ZM23.6574 60.784L23.2587 59.8669L23.2513 59.8702L23.6574 60.784ZM28.0094 56.688L27.1232 56.2247L27.119 56.2327L27.115 56.2408L28.0094 56.688ZM29.8014 49.328L28.8049 49.2438L28.8039 49.2578L29.8014 49.328ZM29.8014 27.824L30.7978 27.7386L30.7978 27.7386L29.8014 27.824ZM27.8814 20.4L26.9832 20.8396L26.9889 20.8511L26.9948 20.8626L27.8814 20.4ZM23.4014 15.92L22.9388 16.8066L22.9503 16.8125L22.9619 16.8182L23.4014 15.92ZM12.7774 20.784V19.784H11.7774V20.784H12.7774ZM19.8814 21.744L19.3817 22.6102L19.3887 22.6142L19.3958 22.6182L19.8814 21.744ZM23.3374 30.064L22.3393 30.1251L22.3394 30.1264L23.3374 30.064ZM23.2734 46.192L22.2764 46.1153L22.2756 46.1248L22.2751 46.1344L23.2734 46.192ZM22.3134 51.632L21.3736 51.2903L21.3736 51.2903L22.3134 51.632ZM19.9454 54.704L19.4309 53.8465L19.4231 53.8512L19.4154 53.856L19.9454 54.704ZM12.7774 55.664H11.7774V56.664H12.7774V55.664ZM5.48141 10.544V9.544H4.83407L4.56905 10.1346L5.48141 10.544ZM31.5294 10.544H32.5294V9.544H31.5294V10.544ZM31.5294 63.024L31.5362 64.024L32.5294 64.0172V63.024H31.5294ZM3.36941 63.216L2.36942 63.2187L2.37211 64.2228L3.37623 64.216L3.36941 63.216ZM3.24141 15.536L2.32905 15.1266L2.24084 15.3232L2.24142 15.5387L3.24141 15.536ZM27.1774 9.904V10.904H28.7276L28.0885 9.4917L27.1774 9.904ZM1.44941 9.904L0.44952 9.9186L0.463905 10.904H1.44941V9.904ZM1.32141 1.136V0.135998H0.306708L0.32152 1.15059L1.32141 1.136ZM23.2094 1.136L24.1205 0.723698L23.8545 0.135998H23.2094V1.136ZM14.6334 14.384V13.384H6.50541V14.384V15.384H14.6334V14.384ZM6.50541 14.384H5.50541V62.064H6.50541H7.50541V14.384H6.50541ZM6.50541 62.064V63.064H15.0814V62.064V61.064H6.50541V62.064ZM15.0814 62.064V63.064C18.9237 63.064 21.9507 62.6368 24.0636 61.6978L23.6574 60.784L23.2513 59.8702C21.5241 60.6378 18.8338 61.064 15.0814 61.064V62.064ZM23.6574 60.784L24.0561 61.7011C26.2294 60.7562 27.858 59.2269 28.9038 57.1352L28.0094 56.688L27.115 56.2408C26.2835 57.9037 25.0107 59.1052 23.2587 59.8669L23.6574 60.784ZM28.0094 56.688L28.8956 57.1513C29.9621 55.1111 30.5798 52.5099 30.7989 49.3982L29.8014 49.328L28.8039 49.2578C28.5963 52.2048 28.0194 54.5102 27.1232 56.2247L28.0094 56.688ZM29.8014 49.328L30.7979 49.4122C31.057 46.3458 31.1854 42.6252 31.1854 38.256H30.1854H29.1854C29.1854 42.5908 29.0578 46.2515 28.805 49.2438L29.8014 49.328ZM30.1854 38.256H31.1854C31.1854 34.268 31.0568 30.761 30.7978 27.7386L29.8014 27.824L28.8051 27.9094C29.058 30.8603 29.1854 34.308 29.1854 38.256H30.1854ZM29.8014 27.824L30.7978 27.7386C30.5342 24.6641 29.8707 22.0509 28.768 19.9374L27.8814 20.4L26.9948 20.8626C27.9401 22.6744 28.5566 25.0106 28.8051 27.9094L29.8014 27.824ZM27.8814 20.4L28.7796 19.9604C27.7006 17.7555 26.0459 16.1008 23.841 15.0218L23.4014 15.92L22.9619 16.8182C24.7676 17.7019 26.0995 19.0338 26.9832 20.8396L27.8814 20.4ZM23.4014 15.92L23.864 15.0334C21.6881 13.8982 18.5726 13.384 14.6334 13.384V14.384V15.384C18.4595 15.384 21.1894 15.8938 22.9388 16.8066L23.4014 15.92ZM12.7774 20.784V21.784H14.6974V20.784V19.784H12.7774V20.784ZM14.6974 20.784V21.784C16.9928 21.784 18.5043 22.104 19.3817 22.6102L19.8814 21.744L20.3811 20.8778C19.0398 20.104 17.0953 19.784 14.6974 19.784V20.784ZM19.8814 21.744L19.3958 22.6182C20.3084 23.1252 20.9959 23.9431 21.4376 25.1577L22.3774 24.816L23.3172 24.4743C22.7349 22.8729 21.7584 21.6428 20.3671 20.8698L19.8814 21.744ZM22.3774 24.816L21.4376 25.1577C21.9067 26.4476 22.215 28.0953 22.3393 30.1251L23.3374 30.064L24.3355 30.0029C24.2038 27.8514 23.8722 26.0004 23.3172 24.4743L22.3774 24.816ZM23.3374 30.064L22.3394 30.1264C22.4655 32.1449 22.5294 34.8098 22.5294 38.128H23.5294H24.5294C24.5294 34.7902 24.4653 32.0791 24.3355 30.0016L23.3374 30.064ZM23.5294 38.128H22.5294C22.5294 41.2694 22.4444 43.9302 22.2764 46.1153L23.2734 46.192L24.2705 46.2687C24.4437 44.0164 24.5294 41.3013 24.5294 38.128H23.5294ZM23.2734 46.192L22.2751 46.1344C22.1502 48.2981 21.8405 50.0062 21.3736 51.2903L22.3134 51.632L23.2532 51.9737C23.8103 50.4418 24.1406 48.5232 24.2718 46.2496L23.2734 46.192ZM22.3134 51.632L21.3736 51.2903C20.9234 52.5284 20.2628 53.3474 19.4309 53.8465L19.9454 54.704L20.4599 55.5615C21.7613 54.7806 22.6794 53.5516 23.2532 51.9737L22.3134 51.632ZM19.9454 54.704L19.4154 53.856C18.6328 54.3451 17.2637 54.664 15.1454 54.664V55.664V56.664C17.3791 56.664 19.21 56.3429 20.4754 55.552L19.9454 54.704ZM15.1454 55.664V54.664H12.7774V55.664V56.664H15.1454V55.664ZM12.7774 55.664H13.7774V20.784H12.7774H11.7774V55.664H12.7774ZM5.48141 10.544V11.544H31.5294V10.544V9.544H5.48141V10.544ZM31.5294 10.544H30.5294V63.024H31.5294H32.5294V10.544H31.5294ZM31.5294 63.024L31.5226 62.024L3.3626 62.216L3.36941 63.216L3.37623 64.216L31.5362 64.024L31.5294 63.024ZM3.36941 63.216L4.36941 63.2133L4.24141 15.5333L3.24141 15.536L2.24142 15.5387L2.36942 63.2187L3.36941 63.216ZM3.24141 15.536L4.15377 15.9454L6.39377 10.9534L5.48141 10.544L4.56905 10.1346L2.32905 15.1266L3.24141 15.536ZM27.1774 9.904V8.904H1.44941V9.904V10.904H27.1774V9.904ZM1.44941 9.904L2.44931 9.8894L2.32131 1.1214L1.32141 1.136L0.32152 1.15059L0.44952 9.9186L1.44941 9.904ZM1.32141 1.136V2.136H23.2094V1.136V0.135998H1.32141V1.136ZM23.2094 1.136L22.2984 1.5483L26.2664 10.3163L27.1774 9.904L28.0885 9.4917L24.1205 0.723698L23.2094 1.136ZM54.0329 22.85L54.9965 23.1173L55.3481 21.85H54.0329V22.85ZM49.3349 39.786L48.3713 39.5187L48.3071 39.7502L48.355 39.9856L49.3349 39.786ZM53.8589 62V63H55.0831L54.8388 61.8004L53.8589 62ZM46.4929 62L45.5128 62.1985L45.6752 63H46.4929V62ZM42.8389 43.962L43.819 43.7635L41.8389 43.962H42.8389ZM42.8389 62V63H43.8389V62H42.8389ZM35.6469 62H34.6469V63H35.6469V62ZM35.6469 22.85V21.85H34.6469V22.85H35.6469ZM42.8389 22.85H43.8389V21.85H42.8389V22.85ZM42.8389 36.248H41.8389L43.8026 36.515L42.8389 36.248ZM46.5509 22.85V21.85H45.7903L45.5872 22.583L46.5509 22.85ZM54.0329 22.85L53.0693 22.5827L48.3713 39.5187L49.3349 39.786L50.2985 40.0533L54.9965 23.1173L54.0329 22.85ZM49.3349 39.786L48.355 39.9856L52.879 62.1996L53.8589 62L54.8388 61.8004L50.3148 39.5864L49.3349 39.786ZM53.8589 62V61H46.4929V62V63H53.8589V62ZM46.4929 62L47.473 61.8015L43.819 43.7635L42.8389 43.962L41.8588 44.1605L45.5128 62.1985L46.4929 62ZM42.8389 43.962H41.8389V62H42.8389H43.8389V43.962H42.8389ZM42.8389 62V61H35.6469V62V63H42.8389V62ZM35.6469 62H36.6469V22.85H35.6469H34.6469V62H35.6469ZM35.6469 22.85V23.85H42.8389V22.85V21.85H35.6469V22.85ZM42.8389 22.85H41.8389V36.248H42.8389H43.8389V22.85H42.8389ZM42.8389 36.248L43.8026 36.515L47.5146 23.117L46.5509 22.85L45.5872 22.583L41.8752 35.981L42.8389 36.248ZM46.5509 22.85V23.85H54.0329V22.85V21.85H46.5509V22.85Z" fill="#261F0D" mask="url(#path-1-outside-1_21_2)"/>
</svg>
